<?xml version="1.0" encoding="utf-8"?>
<!-- Generator: Adobe Illustrator 24.0.1, SVG Export Plug-In . SVG Version: 6.00 Build 0)  -->
<svg version="1.1" id="Capa_1" xmlns="http://www.w3.org/2000/svg" xmlns:xlink="http://www.w3.org/1999/xlink" x="0px" y="0px"
	 viewBox="0 0 75 75" style="enable-background:new 0 0 75 75;" xml:space="preserve">
<style type="text/css">
	.st0{fill:#8EBEF8;}
	.st1{fill:#FFFFFF;}
</style>
<title>3-free-min</title>
<g id="Layer_2">
	<g id="Layer_1-2">
		<circle class="st0" cx="37.5" cy="37.5" r="37.5"/>
		<path class="st1" d="M56.62,38.87l-2.53-1.37l2.53-1.37c1.94-0.94,3.23-2.85,3.38-5c0-0.56-0.1-1.11-0.31-1.63
			c-1.16-2.9-5.08-4.27-8.75-3.06c-2.4,0.8-7.39,5.19-11.08,8.7c3.51-3.69,7.9-8.67,8.7-11.08c1.21-3.66-0.16-7.58-3.06-8.75
			C44.98,15.1,44.43,15,43.87,15c-2.15,0.15-4.06,1.44-5,3.38l-1.37,2.53l-1.37-2.53c-0.93-1.95-2.84-3.25-5-3.38
			c-0.56,0-1.11,0.1-1.63,0.31c-2.89,1.17-4.26,5.09-3.05,8.75c0.8,2.42,5.24,7.45,8.76,11.15c-3.7-3.53-8.73-8-11.15-8.77
			c-3.66-1.21-7.58,0.16-8.75,3.06c-0.2,0.52-0.31,1.07-0.31,1.63c0.15,2.15,1.44,4.06,3.38,5l2.53,1.37l-2.53,1.37
			c-1.94,0.94-3.23,2.85-3.38,5c0,0.56,0.11,1.11,0.31,1.63c1.17,2.9,5.09,4.27,8.75,3.06c2.43-0.81,7.49-5.28,11.19-8.81
			c-3.53,3.7-8,8.76-8.8,11.19c-1.21,3.66,0.16,7.58,3.06,8.75c0.52,0.2,1.07,0.31,1.62,0.31c2.16-0.13,4.07-1.43,5-3.38l1.37-2.53
			l1.37,2.53c0.94,1.94,2.85,3.23,5,3.38c0.56,0,1.11-0.11,1.63-0.31c2.9-1.17,4.27-5.09,3.06-8.75c-0.8-2.41-5.22-7.43-8.74-11.12
			c3.7,3.52,8.71,7.94,11.12,8.74c3.67,1.21,7.59-0.16,8.75-3.07C59.9,44.98,60,44.42,60,43.87C59.85,41.72,58.56,39.81,56.62,38.87
			z M38.69,38.64L38.69,38.64L38.69,38.64L38.69,38.64L38.69,38.64l-1.15,8.8l-1.14-8.81l0,0l0,0l0,0l0,0l-8.89-1.13l8.8-1.15l0,0
			l0,0l0,0l0,0l1.14-8.8l1.15,8.8l0,0l0,0l0,0l0,0l8.8,1.15L38.69,38.64z"/>
	</g>
</g>
</svg>
