<svg xmlns="http://www.w3.org/2000/svg" xmlns:xlink="http://www.w3.org/1999/xlink" width="68" height="68" viewBox="0 0 68 68"><defs><style>.a{fill:#f4f4f4;}.b{fill:#ff8c61;}.c{filter:url(#a);}</style><filter id="a" x="0" y="0" width="68" height="68" filterUnits="userSpaceOnUse"><feOffset dy="3" input="SourceAlpha"/><feGaussianBlur stdDeviation="3" result="b"/><feFlood flood-opacity="0.051"/><feComposite operator="in" in2="b"/><feComposite in="SourceGraphic"/></filter></defs><g transform="translate(9 6)"><g class="c" transform="matrix(1, 0, 0, 1, -9, -6)"><rect class="a" width="50" height="50" rx="10" transform="translate(9 6)"/></g><path class="b" d="M10.3,11.581c-2.132,0-3.859,2.574-3.859,2.574s1.728,2.574,3.859,2.574,3.859-2.574,3.859-2.574S12.432,11.581,10.3,11.581Zm0,3.86a1.287,1.287,0,1,1,1.286-1.287A1.287,1.287,0,0,1,10.3,15.441ZM20.335,11.4a2.976,2.976,0,0,0-2.718-1.745h-.241V4.572a3.213,3.213,0,0,0-3.216-3.286A3.2,3.2,0,0,0,13,1.5,3.2,3.2,0,0,0,10.826.043,3.269,3.269,0,0,0,10.3,0,3.218,3.218,0,0,0,7.582,1.5a3.047,3.047,0,0,0-.616-.168,3.268,3.268,0,0,0-.526-.043A3.22,3.22,0,0,0,3.224,4.5V9.651H2.983A2.977,2.977,0,0,0,.264,11.4,2.9,2.9,0,0,0,.83,14.622L4.185,18.1a8.5,8.5,0,0,0,6.116,2.49A8.5,8.5,0,0,0,16.416,18.1l3.354-3.477A2.9,2.9,0,0,0,20.335,11.4Zm-1.953,1.886-3.354,3.476a6.558,6.558,0,0,1-4.727,1.9,6.561,6.561,0,0,1-4.727-1.9L2.219,13.282a.985.985,0,0,1-.194-1.093,1.046,1.046,0,0,1,.959-.608H5.154V4.5A1.287,1.287,0,0,1,6.44,3.217,1.285,1.285,0,0,1,7.727,4.572V8.686a.322.322,0,0,0,.322.322h.643a.322.322,0,0,0,.322-.322V3.217A1.287,1.287,0,0,1,10.3,1.93a1.285,1.285,0,0,1,1.286,1.356v5.4a.322.322,0,0,0,.322.322h.643a.322.322,0,0,0,.322-.322V4.5a1.287,1.287,0,0,1,1.286-1.287,1.285,1.285,0,0,1,1.286,1.356v7.008h2.171a1.046,1.046,0,0,1,.959.608.984.984,0,0,1-.194,1.093Z" transform="translate(14.7 14.706)"/></g></svg>