<svg xmlns="http://www.w3.org/2000/svg" xmlns:xlink="http://www.w3.org/1999/xlink" width="68" height="68" viewBox="0 0 68 68"><defs><style>.a{fill:#f4f4f4;}.b{fill:#f397d6;}.c{filter:url(#a);}</style><filter id="a" x="0" y="0" width="68" height="68" filterUnits="userSpaceOnUse"><feOffset dy="3" input="SourceAlpha"/><feGaussianBlur stdDeviation="3" result="b"/><feFlood flood-opacity="0.051"/><feComposite operator="in" in2="b"/><feComposite in="SourceGraphic"/></filter></defs><g transform="translate(9 6)"><g class="c" transform="matrix(1, 0, 0, 1, -9, -6)"><rect class="a" width="50" height="50" rx="10" transform="translate(9 6)"/></g><path class="b" d="M10.714,47.915a.6.6,0,0,1-.841,0L5.5,43.583H2.755l5.763,5.7a2.526,2.526,0,0,0,3.555,0l5.763-5.7H15.094ZM14.266,32a6.244,6.244,0,0,0-3.97,1.4A6.244,6.244,0,0,0,6.326,32,6.355,6.355,0,0,0,0,38.274,6.118,6.118,0,0,0,1.52,42.3h4.7l1.2-2.884,2.288,5.08a.643.643,0,0,0,1.162.024l2-4,.889,1.778h5.309a6.118,6.118,0,0,0,1.52-4.022A6.349,6.349,0,0,0,14.266,32Zm3.374,9.009H14.555l-1.11-2.22a.643.643,0,0,0-1.15,0l-1.967,3.937-2.341-5.2a.645.645,0,0,0-1.182.016L5.361,41.009H2.952a4.333,4.333,0,0,1,3.374-7.079c1.247,0,2.051.249,3.97,2.148,2.055-2.031,2.779-2.148,3.97-2.148A4.33,4.33,0,0,1,17.64,41.009Z" transform="translate(14.706 -15.824)"/></g></svg>