<svg xmlns="http://www.w3.org/2000/svg" xmlns:xlink="http://www.w3.org/1999/xlink" width="68" height="68" viewBox="0 0 68 68"><defs><style>.a{fill:#f4f4f4;}.b{fill:#ed6e78;}.c{filter:url(#a);}</style><filter id="a" x="0" y="0" width="68" height="68" filterUnits="userSpaceOnUse"><feOffset dy="3" input="SourceAlpha"/><feGaussianBlur stdDeviation="3" result="b"/><feFlood flood-opacity="0.051"/><feComposite operator="in" in2="b"/><feComposite in="SourceGraphic"/></filter></defs><g transform="translate(9 6)"><g class="c" transform="matrix(1, 0, 0, 1, -9, -6)"><rect class="a" width="50" height="50" rx="10" transform="translate(9 6)"/></g><path class="b" d="M18.015,15.441V.643A.645.645,0,0,0,17.371,0H3.217A3.216,3.216,0,0,0,0,3.217V17.371a3.216,3.216,0,0,0,3.217,3.217H17.371a.645.645,0,0,0,.643-.643V19.3a.643.643,0,0,0-.519-.631,6.722,6.722,0,0,1,0-2.6.643.643,0,0,0,.519-.631Zm-2.171,3.217H3.217a1.287,1.287,0,0,1,0-2.574H15.843A10.208,10.208,0,0,0,15.843,18.658Zm.241-4.5H3.217a3.192,3.192,0,0,0-1.287.269V3.217A1.285,1.285,0,0,1,3.217,1.93H16.085ZM8.666,11.44a.49.49,0,0,0,.684,0l2.919-2.867a1.994,1.994,0,0,0-.149-2.984A2.147,2.147,0,0,0,9.3,5.782l-.3.294-.3-.294a2.148,2.148,0,0,0-2.815-.193,1.991,1.991,0,0,0-.149,2.984Z" transform="translate(16.176 16.176)"/></g></svg>