<svg xmlns="http://www.w3.org/2000/svg" xmlns:xlink="http://www.w3.org/1999/xlink" width="68" height="68" viewBox="0 0 68 68"><defs><style>.a{fill:#f4f4f4;}.b{fill:#25d0a8;}.c{filter:url(#a);}</style><filter id="a" x="0" y="0" width="68" height="68" filterUnits="userSpaceOnUse"><feOffset dy="3" input="SourceAlpha"/><feGaussianBlur stdDeviation="3" result="b"/><feFlood flood-opacity="0.078"/><feComposite operator="in" in2="b"/><feComposite in="SourceGraphic"/></filter></defs><g transform="translate(9 6)"><g class="c" transform="matrix(1, 0, 0, 1, -9, -6)"><rect class="a" width="50" height="50" rx="10" transform="translate(9 6)"/></g><path class="b" d="M19.377,8.638a3.541,3.541,0,0,0,.11-.871,3.634,3.634,0,0,0-1.654-3.051A3.116,3.116,0,0,0,15.277,1.7,3.121,3.121,0,0,0,10.3.912,3.119,3.119,0,0,0,5.315,1.7,3.116,3.116,0,0,0,2.759,4.72,3.625,3.625,0,0,0,1.105,7.771a3.587,3.587,0,0,0,.11.871,3.621,3.621,0,0,0,.439,5.746A3.4,3.4,0,0,0,4.9,17.73a3.38,3.38,0,0,0,5.39.56,3.38,3.38,0,0,0,5.39-.56,3.394,3.394,0,0,0,3.252-3.342,3.628,3.628,0,0,0,.443-5.75ZM9.384,16a1.565,1.565,0,0,1-1.571,1.56c-1.245,0-1.5-1.117-1.726-1.8l-.768.129a1.6,1.6,0,0,1-1.836-1.533c0-.106.178-1.037.178-1.037l-.689-.284a1.821,1.821,0,0,1-.208-3.278L3.5,9.334l-.375-.761a1.826,1.826,0,0,1,.95-2.5l.715-.291a5.169,5.169,0,0,1-.208-1.03A1.281,1.281,0,0,1,5.791,3.46l.867.045L6.84,2.79a1.29,1.29,0,0,1,2.54.318Zm8.241-2.971-.693.284s.174.931.174,1.037a1.6,1.6,0,0,1-1.836,1.533l-.768-.129c-.231.689-.481,1.8-1.726,1.8A1.567,1.567,0,0,1,11.2,16V3.1a1.29,1.29,0,0,1,2.54-.318l.182.715.867-.045A1.286,1.286,0,0,1,16,4.747a4.837,4.837,0,0,1-.208,1.03l.715.291a1.818,1.818,0,0,1,.95,2.495l-.375.761.738.424A1.823,1.823,0,0,1,17.624,13.033Z" transform="translate(14.706 16.176)"/></g></svg>