<svg xmlns="http://www.w3.org/2000/svg" xmlns:xlink="http://www.w3.org/1999/xlink" width="68" height="68" viewBox="0 0 68 68"><defs><style>.a{fill:#f4f4f4;}.b{fill:#008db8;}.c{filter:url(#a);}</style><filter id="a" x="0" y="0" width="68" height="68" filterUnits="userSpaceOnUse"><feOffset dy="3" input="SourceAlpha"/><feGaussianBlur stdDeviation="3" result="b"/><feFlood flood-opacity="0.051"/><feComposite operator="in" in2="b"/><feComposite in="SourceGraphic"/></filter></defs><g transform="translate(9 6)"><g class="c" transform="matrix(1, 0, 0, 1, -9, -6)"><rect class="a" width="50" height="50" rx="10" transform="translate(9 6)"/></g><path class="b" d="M23.2,38.536h0a14.026,14.026,0,0,0-6.035,1.472,18.185,18.185,0,0,0-4.973-7.852.7.7,0,0,0-.877,0,18.2,18.2,0,0,0-4.975,7.852A14.02,14.02,0,0,0,.307,38.536h0a.311.311,0,0,0-.315.319A11.312,11.312,0,0,0,3.616,47a10.829,10.829,0,0,0,8.052,3.3h.183A10.823,10.823,0,0,0,19.893,47a11.311,11.311,0,0,0,3.626-8.141A.311.311,0,0,0,23.2,38.536ZM4.984,45.592l-.029-.028-.03-.027a8.987,8.987,0,0,1-2.763-4.87,10.341,10.341,0,0,1,5.511,2.664l.03.029.031.028a8.485,8.485,0,0,1,2.208,3.163l.727,1.758a8.937,8.937,0,0,1-5.685-2.717Zm6.77.21a10.5,10.5,0,0,0-2.713-3.875,10.507,10.507,0,0,0-1.007-.842,17.3,17.3,0,0,1,3.721-6.632,17.3,17.3,0,0,1,3.718,6.632,10.608,10.608,0,0,0-1.007.842A10.5,10.5,0,0,0,11.755,45.8Zm6.83-.265-.03.027-.029.028a8.926,8.926,0,0,1-5.685,2.717l.727-1.759a8.489,8.489,0,0,1,2.208-3.163l.031-.028.03-.029a10.345,10.345,0,0,1,5.512-2.664A8.988,8.988,0,0,1,18.584,45.537Z" transform="translate(13.245 -15.824)"/></g></svg>