<svg xmlns="http://www.w3.org/2000/svg" xmlns:xlink="http://www.w3.org/1999/xlink" width="68" height="68" viewBox="0 0 68 68"><defs><style>.a{fill:#f4f4f4;}.b{opacity:0.999;}.c{fill:#898cbd;}.d{filter:url(#a);}</style><filter id="a" x="0" y="0" width="68" height="68" filterUnits="userSpaceOnUse"><feOffset dy="3" input="SourceAlpha"/><feGaussianBlur stdDeviation="3" result="b"/><feFlood flood-opacity="0.051"/><feComposite operator="in" in2="b"/><feComposite in="SourceGraphic"/></filter></defs><g transform="translate(9 6)"><g class="d" transform="matrix(1, 0, 0, 1, -9, -6)"><rect class="a" width="50" height="50" rx="10" transform="translate(9 6)"/></g><g class="b" transform="translate(17.647 14.706)"><path class="c" d="M15.481,18.658V1.93A1.931,1.931,0,0,0,13.551,0H1.93A1.931,1.931,0,0,0,0,1.93V18.658a1.931,1.931,0,0,0,1.93,1.93H13.551A1.931,1.931,0,0,0,15.481,18.658ZM1.93,18.417V2.171a.242.242,0,0,1,.241-.241H13.31a.242.242,0,0,1,.241.241V18.417a.242.242,0,0,1-.241.241H2.171A.242.242,0,0,1,1.93,18.417Z"/><path class="c" d="M6.756,2.574H4.5V.322A.322.322,0,0,0,4.182,0H3.539a.322.322,0,0,0-.322.322V2.574H.965A.965.965,0,1,0,1.871,3.86H5.85a.963.963,0,1,0,.906-1.287ZM2.574,8.622l1.019,1.529a.322.322,0,0,0,.535,0L5.147,8.622V4.5H2.574Z" transform="translate(4.412 5.882)"/></g></g></svg>