<svg xmlns="http://www.w3.org/2000/svg" width="40" height="40" viewBox="0 0 40 40"><defs><style>.a{fill:#c7c7c7;opacity:0.996;}.b{fill:#f4f4f4;}</style></defs><rect class="a" width="40" height="40" rx="10"/><path class="b" d="M2.063,6.875H22.688a.687.687,0,0,0,.687-.687V4.6a.688.688,0,0,0-.446-.644L12.858.088a1.374,1.374,0,0,0-.966,0L1.821,3.958a.688.688,0,0,0-.446.644V6.188A.687.687,0,0,0,2.063,6.875ZM12.375,2.111l7.029,2.7H5.346ZM24.063,19.938h-.688v-2.75A1.483,1.483,0,0,0,21.8,15.813H20.625V8.25H18.563v7.563h-2.75V8.25H13.75v7.563H11V8.25H8.938v7.563H6.188V8.25H4.125v7.563H2.946a1.483,1.483,0,0,0-1.571,1.375v2.75H.687A.687.687,0,0,0,0,20.625v.688A.687.687,0,0,0,.687,22H24.063a.687.687,0,0,0,.688-.687v-.687A.687.687,0,0,0,24.063,19.938Zm-2.75,0H3.438V17.875H21.313Z" transform="translate(8 9)"/></svg>