<svg xmlns="http://www.w3.org/2000/svg" width="28" height="32" viewBox="0 0 28 32"><defs><style>.a{fill:#1f1e34;opacity:0.5;}.b{fill:none;}</style></defs><path class="a" d="M11.607,32H1.393A1.393,1.393,0,0,0,0,33.393V43.607A1.393,1.393,0,0,0,1.393,45H11.607A1.393,1.393,0,0,0,13,43.607V33.393A1.393,1.393,0,0,0,11.607,32Zm0,11.607H1.393V33.393H11.607Zm-1.041-7.014L5.558,41.561a.348.348,0,0,1-.492,0L2.432,38.9a.348.348,0,0,1,0-.492l.659-.654a.348.348,0,0,1,.492,0L5.32,39.508l4.1-4.069a.348.348,0,0,1,.492,0l.654.659a.348.348,0,0,1,0,.492Z" transform="translate(7 -22)"/><rect class="b" width="28" height="32"/></svg>