<svg xmlns="http://www.w3.org/2000/svg" width="30" height="30" viewBox="0 0 30 30"><defs><style>.a{fill:none;}.b{fill:#43425d;}</style></defs><rect class="a" width="30" height="30"/><path class="b" d="M7.286,35.429H8.714a.43.43,0,0,1,.429.429V40h2.393a.429.429,0,0,1,.3.732L8.3,44.268a.429.429,0,0,1-.607,0L4.161,40.732a.429.429,0,0,1,.3-.732H6.857V35.857A.43.43,0,0,1,7.286,35.429ZM16,33.714V46.286A1.715,1.715,0,0,1,14.286,48H1.714A1.715,1.715,0,0,1,0,46.286V33.714A1.715,1.715,0,0,1,1.714,32H14.286A1.715,1.715,0,0,1,16,33.714ZM14.286,46.071V33.929a.215.215,0,0,0-.214-.214H1.929a.215.215,0,0,0-.214.214V46.071a.215.215,0,0,0,.214.214H14.071A.215.215,0,0,0,14.286,46.071Z" transform="translate(7 -25)"/></svg>