<svg id="Exit_Icon_30x30" data-name="Exit Icon 30x30" xmlns="http://www.w3.org/2000/svg" width="30" height="30" viewBox="0 0 30 30">
  <rect id="Rectangle_2976" data-name="Rectangle 2976" width="30" height="30" rx="5" fill="none"/>
  <path id="times-solid" d="M6.9,14.091l2.843-2.843a.894.894,0,0,0,0-1.264l-.632-.632a.894.894,0,0,0-1.264,0L5,12.2,2.157,9.353a.894.894,0,0,0-1.264,0l-.632.632a.894.894,0,0,0,0,1.264L3.1,14.091.262,16.934a.894.894,0,0,0,0,1.264l.632.632a.894.894,0,0,0,1.264,0L5,15.986l2.843,2.843a.894.894,0,0,0,1.264,0l.632-.632a.894.894,0,0,0,0-1.264Z" transform="translate(10 0.909)" fill="#fff"/>
</svg>
