<svg xmlns="http://www.w3.org/2000/svg" xmlns:xlink="http://www.w3.org/1999/xlink" width="190" height="190" viewBox="0 0 190 190"><defs><style>.a{fill:#c1dbfb;}.b,.g{fill:#43425d;}.c{fill:#ebf4fd;}.d,.e{opacity:0.2;}.e,.f{fill:#fff;}.g{font-size:14px;font-family:Montserrat-Medium, Montserrat;font-weight:500;letter-spacing:0.02em;}.h{fill:none;opacity:0.5;}.i{filter:url(#a);}</style><filter id="a" x="14.243" y="16" width="163" height="163" filterUnits="userSpaceOnUse"><feOffset dy="3" input="SourceAlpha"/><feGaussianBlur stdDeviation="3" result="b"/><feFlood flood-opacity="0.051"/><feComposite operator="in" in2="b"/><feComposite in="SourceGraphic"/></filter></defs><g transform="translate(0)"><g transform="translate(0 0)"><path class="a" d="M94.986,189.982a95,95,0,1,1,95-94.994,95,95,0,0,1-95,94.994Zm0-155.439a60.451,60.451,0,1,0,60.451,60.451A60.451,60.451,0,0,0,94.986,34.543Z" transform="translate(0.017 0.01)"/><path class="b" d="M55.3,181.367A95,95,0,0,1,94.878,0V34.545A60.458,60.458,0,0,0,69.71,149.973Z" transform="translate(0.125 0.008)"/><path class="c" d="M185.335,81.852A60.669,60.669,0,0,0,164.4,48.013a59.774,59.774,0,0,0-38.087-13.535V0a95.012,95.012,0,0,1,92.748,74.387Z" transform="translate(-31.309 0.008)"/><path class="d" d="M105.393,42.109a63.331,63.331,0,1,0,63.331,63.328,63.331,63.331,0,0,0-63.331-63.328Zm0,123.774a60.451,60.451,0,1,1,60.451-60.451,60.451,60.451,0,0,1-60.451,60.451Z" transform="translate(-10.39 -10.436)"/><path class="e" d="M94.986,0a95,95,0,1,0,95,94.994A95,95,0,0,0,94.986,0Zm0,187.1A92.116,92.116,0,1,1,187.1,94.989,92.116,92.116,0,0,1,94.986,187.1Z" transform="translate(0.017 0.008)"/></g><g class="i" transform="matrix(1, 0, 0, 1, 0, 0)"><circle class="f" cx="72.5" cy="72.5" r="72.5" transform="translate(23.24 22)"/></g><g transform="translate(55 46)"><text class="g" transform="translate(-7 55)"><tspan x="1.594" y="14">Earn Cosmic </tspan><tspan x="15.93" y="32">Rewards</tspan></text><g transform="translate(20 5)"><rect class="h" width="40" height="40"/><path class="b" d="M17.83,16.882a4.114,4.114,0,0,1-2.8-7.616.245.245,0,0,0-.077-.454,5.107,5.107,0,0,0-.957-.087,5.249,5.249,0,1,0,4.073,8.557A.246.246,0,0,0,17.83,16.882Zm9.191-4.773-3.27-2.214L24.5,6.013a2.211,2.211,0,0,0-2.586-2.6l-3.877.749L15.829.889a2.292,2.292,0,0,0-3.663,0L9.957,4.165,6.086,3.416a2.217,2.217,0,0,0-2.592,2.6l.749,3.882L.973,12.109a2.215,2.215,0,0,0,0,3.669l3.27,2.214-.749,3.882a2.211,2.211,0,0,0,2.592,2.592l3.871-.749,2.209,3.275A2.207,2.207,0,0,0,15.829,27l2.209-3.275,3.877.749a2.182,2.182,0,0,0,1.985-.607,2.22,2.22,0,0,0,.607-1.985L23.757,18l3.27-2.214a2.217,2.217,0,0,0-.005-3.674Zm-6.173,4.68.962,4.987-4.976-.962L14,25.018l-2.838-4.21-4.97.962.962-4.987-4.2-2.843,4.2-2.843L6.189,6.111l4.976.962L14,2.874l2.838,4.2,4.976-.962L20.848,11.1l4.2,2.843-4.2,2.849Z" transform="translate(6.667 6.692)"/></g></g></g></svg>