<svg id="Sparkles_Icon" data-name="Sparkles Icon" xmlns="http://www.w3.org/2000/svg" width="40" height="40" viewBox="0 0 40 40">
  <g id="Icon">
    <rect id="Container" width="40" height="40" rx="10" fill="none"/>
    <path id="sparkles-regular" d="M17.91,4.659,21,3.5,22.159.41a.631.631,0,0,1,1.181,0L24.5,3.5l3.09,1.159a.631.631,0,0,1,0,1.182L24.5,7l-1.159,3.09a.63.63,0,0,1-1.181,0L21,7,17.91,5.841a.571.571,0,0,1-.41-.591.571.571,0,0,1,.41-.591ZM9.625,4.008a.877.877,0,0,1,1.591,0L14.1,10.243l6.234,2.882a.877.877,0,0,1,0,1.591L14.1,17.6l-2.882,6.234a.877.877,0,0,1-1.591,0L6.743,17.6.508,14.716a.877.877,0,0,1,0-1.591l6.235-2.882Zm-.5,7.34a2.646,2.646,0,0,1-1.28,1.28l-2.8,1.3,2.8,1.291a2.458,2.458,0,0,1,1.28,1.28l1.3,2.8,1.291-2.8a2.3,2.3,0,0,1,1.28-1.28l2.8-1.291-2.8-1.3a2.458,2.458,0,0,1-1.28-1.28l-1.291-2.8ZM22.159,17.91a.63.63,0,0,1,1.181,0L24.5,21l3.09,1.159a.63.63,0,0,1,0,1.181L24.5,24.5l-1.159,3.09a.63.63,0,0,1-1.181,0L21,24.5l-3.09-1.159a.63.63,0,0,1,0-1.181L21,21Z" transform="translate(6 6)" fill="#d395a5"/>
  </g>
</svg>
