<svg xmlns="http://www.w3.org/2000/svg" width="28" height="32" viewBox="0 0 28 32"><defs><style>.a{fill:none;}.b{fill:#c7c7c7;}</style></defs><rect class="a" width="28" height="32" rx="5"/><path class="b" d="M1.333,4.444H14.667A.444.444,0,0,0,15.111,4V2.975a.444.444,0,0,0-.288-.416L8.312.057a.888.888,0,0,0-.624,0l-6.511,2.5a.444.444,0,0,0-.288.416V4A.444.444,0,0,0,1.333,4.444ZM8,1.365l4.544,1.746H3.456Zm7.556,11.524h-.444V11.111a.959.959,0,0,0-1.016-.889h-.762V5.333H12v4.889H10.222V5.333H8.889v4.889H7.111V5.333H5.778v4.889H4V5.333H2.667v4.889H1.9a.959.959,0,0,0-1.016.889v1.778H.444A.444.444,0,0,0,0,13.333v.444a.444.444,0,0,0,.444.444H15.556A.444.444,0,0,0,16,13.778v-.444A.444.444,0,0,0,15.556,12.889Zm-1.778,0H2.222V11.556H13.778Z" transform="translate(6 9)"/></svg>